Patient4_TMGait_0pt4_01_right_44_EMG.mot
version=1
nRows=39
nColumns=33
inDegrees=no
endheader
time	1LAddLong	2LGlutMax	3LGlutMed	4LIliopsoas	5LSemiMemb	6LBicFemLong	7LRecFem	8LVastMed	9LVastLat	10LGasMed	11LTibAnt	12lTibPost	13LPeroneusLong	14LSol	15LExtDigLong	16LFlexDigLong	17RAddLong	18RGlutMax	19RGlutMed	20RIliopsoas	21RSemiMemb	22RBicFemLong	23RRecFem	24RVastMed	25RVastLat	26RGasMed	27RTibAnt	28RTibPost	29RPeroneusLong	30RSol	31RExtDigLong	32RFlexDigLong
58.915	0.001831	-0.036774	-0.021515	0.01358	0.028076	-0.1265	0.068817	0.00412	0.027924	-0.037384	0.007477	0.003357	0.21347	-0.033875	-0.008392	0.006409	-0.00946	-0.003357	0.094757	0.16083	-0.00946	0.061035	0.04776	-0.049438	0.009308	0.001373	0.0914	0.004578	-0.001068	0.04303	-0.004272	-0.28946
58.916	0.008698	-0.02243	0.031281	0.009308	0.026093	-0.24704	0.078583	0.005493	0.035095	-0.004425	-0.061188	0.003204	0.2417	-0.028839	0.26962	0.003357	-0.002594	0.005188	-0.018158	0.033417	-0.016174	0.067749	0.039825	-0.072937	0.001678	-0.001068	0.23438	0.006561	0.053406	0.037842	-0.005188	-0.2301
58.917	0.006866	-0.033417	0.20309	0.004883	0.009918	-0.1622	0.088806	0.007782	0	0.020294	-0.057678	0.009003	0.054779	-0.031738	1.2207	0.011444	-0.00412	-0.001373	-0.011444	0.012512	-0.007477	0.054779	-0.01297	-0.064392	0.002136	-0.001068	0.18356	0.010529	-0.069275	0.039825	-0.001984	-0.17395
58.918	0.008087	-0.024261	0.18219	-0.002899	-0.000916	-0.13519	0.018158	0.007324	-0.030365	0.000305	-0.012512	0.003357	-0.27618	0.048065	0.37064	0.001068	0.015564	-0.036163	-0.008392	0.027161	-0.008698	0.04303	0.016327	-0.11429	-0.004425	-0.002289	-0.067291	0.007629	-0.059509	0.032654	-0.001678	-0.13626
58.919	0.009003	-0.024872	0.08255	0.010071	-0.012817	-0.019073	-0.023346	0.015869	-0.026245	-0.04303	0.15732	0.005646	0.007172	-0.03891	-0.6871	0.016632	0.018005	0.023651	0.019531	0.0177	-0.015564	0.046844	-0.020142	-0.090942	-0.007324	-0.001068	-0.095367	0.005798	0.029449	0.060577	-0.00061	-0.088654
58.92	0.006104	-0.007019	0.076752	0.002441	0.00351	0.049591	-0.071716	0.017395	-0.025787	-0.058136	0.19791	0.001984	0.033112	0.043182	-0.7312	-0.004578	0.027924	-0.031433	-0.18372	0.003204	-0.025482	0.036621	-0.036621	-0.079193	0.005035	-0.001221	-0.1738	0.007935	0.084076	-0.015564	-0.003357	-0.057373
58.921	-0.002594	-0.011139	0.080719	0.009003	0.037231	0.07309	-0.047302	0.006104	0.095825	-0.00885	0.15518	0.000458	0.028229	0.001526	-0.51865	-0.018158	0.036926	-0.031891	-0.33218	0.012817	-0.010071	0.037537	0.006561	-0.11108	0.014038	0.002289	-0.20615	0.00824	0.043335	-0.029449	-0.001984	-0.02594
58.922	-0.006561	0.007782	0.062408	0.00824	0.009766	0.046387	0.011597	0.001221	0.14099	0.030823	-0.17181	0.003204	0.39322	-0.070953	-0.35873	0.003204	0.027313	-0.003967	-0.084991	-0.010223	0.035095	0.017548	-0.051727	-0.12573	-0.002289	-0.005188	-0.048065	-0.003815	0.084686	-0.075073	-0.002441	-0.001373
58.923	-0.008087	-0.024872	0.039063	0.009308	-0.065613	0.050812	0.012665	0.002899	0.075531	0.043488	-0.13916	0.000763	0.55679	-0.063171	-0.040283	0.00061	0.0177	0.009918	0.10193	-0.03891	0.073547	0.008698	-0.037994	-0.11017	0.002899	-0.012817	0.030975	0.000305	0.096436	-0.090485	-0.000916	0.008392
58.924	-0.002899	0.008545	0.14145	0.008545	-0.083618	0.016785	-0.000153	0.005951	0.072937	0.035858	-0.023041	0.005493	0.11017	-0.11612	0.22186	0.004425	0.025635	0.015106	0.005341	-0.02533	0.031738	0.032196	-0.041656	-0.10544	0.002594	-0.001831	0.07019	0.005188	0.1268	-0.063324	-0.000916	0.023499
58.925	0.002899	-0.009155	0.068512	-0.003967	0.000153	-0.02655	0.014801	0.001831	0.12283	-0.035095	-0.05661	0.00412	-0.60974	-0.031738	0.20371	0.012054	0.007172	-0.025787	-0.31754	0.009613	-0.10147	0.086365	-0.012665	-0.05722	-0.004578	-0.00061	0.11551	0.005035	0.092468	0.020905	0.001678	0.031128
58.926	0.013885	-0.02182	0.090942	0.010986	0.11795	-0.014954	0.015411	0.004425	0.06897	-0.027313	-0.11795	0	-0.15015	0.17181	-0.24643	0.020142	-0.018616	-0.036926	-0.25085	0.024719	-0.15305	0.11704	0.025482	-0.095673	0.003204	-0.00946	0.015564	-0.001373	0.074768	0.066376	-0.00412	0.044861
58.927	0.012207	-0.010223	0.081177	0.012665	0.095825	-0.016632	0.080261	-0.006561	-0.0383	0.002441	0.049591	0.015411	-0.088654	0.30762	-0.13519	0.007629	-0.005188	-0.045929	-0.11459	-0.00473	0.000763	0.121	0.036011	-0.054932	-0.008545	-0.007019	-0.006714	-0.005035	0.004883	0.06958	-0.001373	0.051727
58.928	0.008698	0.040588	-0.039063	0.027924	0.076904	0.036621	0.065002	-0.00824	-0.13077	0.022583	0.03479	0.000458	-0.11261	0.17578	-0.012054	0.003815	-0.004425	-0.001984	0.002899	0.014191	0.036316	0.12222	0.002289	-0.058899	0.027771	-0.008698	0.13138	0.001984	-0.028839	0.044556	-0.006256	0.058289
58.929	0.014191	-0.027618	-0.086975	0.00885	0.073547	0.048065	0.059357	-0.002594	-0.035858	0.050507	-0.063324	0.002289	-0.2739	-0.10666	0.066833	0.001984	0.002747	-0.002594	-0.020905	-0.025482	-0.050659	0.081635	0.0177	-0.046997	0.022125	-0.005188	0.17487	-0.000153	-0.050812	0.002289	-0.008698	0.064087
58.93	0.014038	-0.016937	-0.10727	0.010223	0.031433	0.063019	0.050354	0.008087	-0.055847	0.035248	-0.014038	0.002136	-0.043488	-0.22995	0.061035	0.011597	0.010986	-0.052185	0.12695	-0.10086	-0.06897	0.028229	-0.033722	-0.048676	0.020752	-0.008545	0.23529	-0.003662	-0.10284	0.000153	-0.004578	0.062103
58.931	0.013428	0.007477	0.13001	0.019531	0.015411	0.016327	0.019989	0.0177	-0.091248	-0.015259	0.014038	0.005188	0.000458	-0.22614	0.16724	0.000458	-0.011749	-0.010376	0.37888	-0.1268	0.011749	0.004578	-0.039215	-0.083618	0.003967	-0.010223	0.22201	0.000153	-0.016632	-0.011597	-0.008698	0.069122
58.932	0.023041	0.005035	0.047607	0.026703	0.014496	-0.056152	0.009003	0.021973	-0.088959	-0.013275	0.036163	0.004883	-0.054169	-0.15442	0.12451	-0.003662	-0.019531	0.000763	0.31952	-0.075226	0.099487	0.003357	0.011902	-0.093536	0.011292	-0.00412	-0.019226	0.004883	0.10742	-0.036926	-0.00061	0.067444
58.933	0.014191	-0.004425	0.071869	0.021362	0.040131	-0.12665	-0.023499	0.011902	-0.072937	-0.022583	0.0354	-0.005188	0.036621	-0.19272	0.10071	-0.00885	-0.005798	-0.086365	-0.22034	0.036163	0.14404	0.012665	-0.00946	-0.054016	-0.010071	-0.000916	-0.044556	0.001526	0.092468	-0.061646	-0.001068	0.069275
58.934	0.013885	-0.048523	0.040436	0.009003	0.030975	-0.1091	-0.038147	-0.007324	-0.016785	-0.00412	0.033722	0.00824	-0.007477	-0.16312	0.075684	-0.000916	-0.015259	-0.075836	-0.076141	0.057983	-0.10101	0.077972	-0.061951	-0.040131	0.004578	-0.007935	-0.14038	-0.005951	-0.20004	-0.039825	-0.002747	0.068359
58.935	0.00946	-0.064087	-0.029755	0.002899	0.019531	-0.061035	-0.065002	-0.011902	0.10254	0.011749	0.034485	0.003357	-0.10071	-0.13153	0.057068	0.006561	-0.027161	-0.087433	0.05722	0.073242	-0.27374	0.13702	-0.037842	-0.039215	-0.004883	-0.014343	-0.10025	0.008545	-0.50827	-0.002747	-0.001373	0.065308
58.936	-0.000763	-0.048828	-0.050507	-0.007019	0.016327	-0.039215	-0.015259	-0.003204	0.26154	-0.056915	0.025787	0.01709	-0.032501	-0.062866	0.002747	0.001373	0.006409	-0.12512	-0.062408	0.070801	-0.20981	0.1033	-0.031128	-0.11017	-0.003052	-0.00885	0.030212	-0.006866	-0.38162	0.020294	-0.007324	0.068207
58.937	0.005798	-0.053406	-0.13809	-0.016174	0.019379	-0.053101	0	-0.005188	0.067902	-0.099945	-0.021973	0.00885	0.009918	0.023193	0.004272	0.008392	0.031281	-0.12268	0.027924	-0.02121	-0.27359	0.064392	-0.016479	-0.14572	-0.049744	-0.006409	0.049286	-0.007019	-0.000305	-0.012665	-0.006561	0.069122
58.938	0.007629	-0.055695	-0.10956	0.020294	0.023041	0.006104	0.042114	-0.007935	0.001373	-0.14755	-0.017548	-0.007782	-0.036469	0.11505	0.04303	0.00351	0.039825	-0.1207	0.13825	-0.063019	-0.32547	0.060272	-0.002441	-0.13306	-0.018005	-0.004883	0.050659	-0.00824	0.13809	-0.019989	-0.005188	0.061188
58.939	0.006256	-0.034943	-0.040588	-0.00412	0.01709	0.006256	0.14191	-0.003052	0.067444	-0.080719	-0.000153	-0.007935	0.081177	0.036621	0.048676	0.00473	0.040436	-0.014191	0.12024	-0.079956	-0.45227	0.026855	-0.010681	-0.11627	-0.009766	-0.002441	0.034027	-0.005341	0.21301	-0.000305	0.002747	0.061798
58.94	-0.004272	-0.081635	0.024872	0.007477	0.00946	0.020905	0.1535	0.001526	0.058441	-0.02533	0.033875	0.004883	-0.042267	0.071259	0.033875	0.011292	-0.01236	-0.048523	0.062103	0.018311	-0.005493	0.06073	-0.072784	-0.04715	0.011749	-0.008087	0.029144	-0.007172	0.3183	0.025787	-0.004425	0.068207
58.941	-0.008087	-0.070343	0.034485	0.001221	-0.011444	0.002747	0.099792	0.003815	0.066376	0.066223	0.053711	0.009155	-0.12268	0.022888	0.034027	0.010071	-0.008545	-0.10605	0.091095	0.10101	0.093536	0.058746	-0.046844	-0.03891	0.006714	-0.009003	0.009003	-0.009918	0.11917	0.00412	-0.004578	0.059052
58.942	0.000153	-0.051422	0.029755	0.000153	-0.015411	-0.000153	0.077209	-0.000458	0.085754	0.12253	0.044861	-0.001831	-0.16907	-0.15259	0.02655	0.002289	-0.025787	-0.034027	0.027771	0.082092	0.15656	0.036774	-0.025482	-0.080566	-0.005951	-0.001068	0.061188	-0.007172	0.017242	-0.012207	0.00946	0.05127
58.943	0.014496	-0.032196	0.033112	0.019531	-0.031738	0.010223	0.072632	0.006561	0.059967	0.10071	0.037231	0.006104	-0.049438	-0.25803	0.026855	-0.007477	-0.013885	-0.044098	-0.16434	0.04425	0.36728	0.027008	-0.008698	-0.071564	0.00473	-0.006409	0.073547	-0.008087	0.026703	-0.02121	-0.001831	0.052795
58.944	-0.019226	-0.034943	-0.022583	0.020294	0.006714	-0.012054	0.040741	0.011444	0.021973	0.052338	0.019226	0.006256	0.13992	-0.18295	0.014191	-0.003204	-0.020142	-0.085754	-0.19089	-0.045319	0.24963	0.03418	-0.063477	-0.066376	0.023346	-0.001678	0.043488	-0.007935	-0.24887	-0.02243	-0.005493	0.044861
58.945	0.007782	-0.019531	-0.10178	0.018616	0.028839	0.016174	0.022736	0.005493	0.022278	0.021057	0.031738	0.001984	0.055847	-0.035553	0.036011	-0.008545	-0.023956	-0.04776	-0.18829	-0.012512	0.2066	0.070953	-0.083771	-0.013275	0.015869	0.002594	0.056458	-0.009308	-0.40298	-0.019226	-0.002289	0.040894
58.946	0.00946	-0.013885	-0.11429	-0.00885	0.01236	0.021667	0.028229	0.003204	0.022736	-0.039368	-0.046539	0.002747	0.70099	0.10559	0.029449	-0.001221	-0.026093	-0.046844	-0.26337	-0.031128	0.045013	0.033722	-0.044403	-0.02121	0.012665	0.003204	0.14343	-0.006866	-0.17197	-0.029755	-0.001221	0.044708
58.947	0.013885	-0.043793	-0.084381	-0.019379	0.021667	0.010223	0.044708	-0.002441	0.03067	-0.061646	0.054474	0.004578	0.45227	0.18326	-0.001984	-0.010529	-0.018921	-0.011597	-0.18448	-0.023651	0.016937	-0.018463	-0.022736	-0.065002	0.0177	0.004578	0.047302	-0.012817	0.081635	-0.079956	0.00061	0.043335
58.948	-0.007629	-0.061798	-0.057831	0.015717	0	0.026703	0.050354	0.003052	0.036621	-0.10956	0.044556	0.003357	-0.22354	0.11261	0.029297	-0.003357	0.006104	-0.083313	-0.13321	0.059662	0.012512	-0.036011	-0.03952	-0.058289	0.019226	0.010834	-0.11566	-0.010529	0.60333	-0.11398	0.00061	0.038452
58.949	0.010681	-0.054474	-0.09613	-0.000763	0.016022	0.10346	0.032959	0.004578	0.014343	-0.12451	0.009613	0.001984	-0.55725	0.10391	-0.002441	-0.001831	0.013275	-0.072479	0.083313	0.064392	-0.016785	-0.045624	-0.016174	-0.079803	0.014343	0.005646	-0.045776	-0.007324	0.56	-0.072784	0	0.035553
58.95	0.00885	-0.059357	-0.080566	0.023804	0.00946	0.074921	0.016937	0.001984	0.016022	-0.11551	0.037689	0.002747	-0.29862	0.004425	-0.11505	-0.016479	0.030212	-0.089111	0.15121	0.02182	-0.053711	-0.027618	-0.034943	-0.086365	0.006409	0.003052	0.047455	-0.005798	-0.24185	-0.015106	-0.00412	0.031586
58.951	0.006866	-0.016937	-0.031281	-0.008545	-0.006561	-0.029144	0.024567	-0.002899	0.018921	-0.1091	0.009003	0.000153	-0.20294	0.027161	-0.05127	0.007324	0.050507	-0.11047	0.094604	0.02121	-0.097809	0.00946	-0.031128	-0.13184	0.000305	-0.001526	0.047302	-0.011902	-0.41596	0.050659	-0.004578	0.02182
58.952	0.006256	-0.007324	0.014648	0.007477	0.021057	0.063171	0.064087	0	0.027161	-0.028381	0.009918	0.005035	0.047913	0.03418	0.050964	0.000458	0.064697	-0.10864	0.010986	0.034027	-0.098724	0.024719	0.020752	-0.1416	-0.001373	0.000763	0.10284	-0.008545	-0.29098	0.074005	-0.002289	0.015411
58.953	-0.007629	-0.014191	-0.028839	0.006866	0.007935	0.09552	0.10452	0.003357	0.008392	0.13214	0.020905	-0.000458	-0.12528	-0.1033	-0.068054	-0.074768	0.088806	-0.088348	-0.089569	0.016174	0.002441	-0.010223	-0.009003	-0.17563	-0.001068	0.002136	-0.027466	-0.006104	0.42694	0.037842	0.005341	0.020447
